<svg xmlns="http://www.w3.org/2000/svg" xmlns:xlink="http://www.w3.org/1999/xlink" viewBox="0,0,256,256" width="50px" height="50px"><g fill="#fff6f6" fill-rule="nonzero" stroke="none" stroke-width="1" stroke-linecap="butt" stroke-linejoin="miter" stroke-miterlimit="10" stroke-dasharray="" stroke-dashoffset="0" font-family="none" font-weight="none" font-size="none" text-anchor="none" style="mix-blend-mode: normal"><g transform="scale(5.12,5.12)"><path d="M19.986,25.212c0,0 0.562,-0.878 1.545,-1.264c0.983,-0.386 0.667,0.562 0.141,0.948c-0.528,0.386 -1.055,0.492 -1.686,0.316zM20.512,23.631c-0.913,0.176 -1.194,0.667 -1.089,1.194c0.141,-0.421 1.089,-1.193 1.089,-1.194zM34.771,27.882c-0.387,0.351 -1.159,1.616 -1.159,1.616c0,0 1.194,-0.141 1.546,-1.089c0.35,-0.949 -0.001,-0.878 -0.387,-0.527zM10.398,28.83c0.667,0.597 1.861,1.089 1.861,1.089l0.07,-2.247c-0.526,0 -1.755,0.316 -2.072,0.386c-0.316,0.069 -0.527,0.175 0.141,0.772zM46,13v24c0,4.963 -4.038,9 -9,9h-24c-4.962,0 -9,-4.037 -9,-9v-24c0,-4.963 4.038,-9 9,-9h24c4.962,0 9,4.037 9,9zM13.541,21.934l0.572,0.223c0.073,0.006 0.143,-0.029 0.182,-0.091c2.349,-3.742 6.583,-6.256 11.456,-6.256c5.798,0 10.708,3.552 12.578,8.508c0.029,0.076 0.1,0.127 0.182,0.127h0.596c0.07,0 0.12,-0.071 0.097,-0.137c-1.904,-5.398 -7.217,-9.294 -13.46,-9.294c-5.214,0 -9.786,2.724 -12.282,6.764c-0.041,0.064 0.004,0.149 0.079,0.156zM15.911,23.843c-2.81,-1.37 -3.793,-1.546 -5.971,-1.405c-2.177,0.141 -2.177,1.229 -1.651,1.265c0.311,0.021 0.487,0.044 0.58,0.055c0.078,0.009 0.089,-0.011 0.115,-0.046c0.022,-0.03 0.032,-0.075 0.043,-0.102c0.019,-0.049 -0.003,-0.099 -0.047,-0.118c-0.045,-0.02 -0.55,-0.245 -0.55,-0.245c0,0 2.74,-0.702 6.146,0.948c3.406,1.65 4.285,3.793 3.337,4.847c-0.948,1.054 -2.599,1.581 -4.636,1.124c-0.035,-1.44 0.035,-2.494 0.035,-2.494c0,0 1.897,-0.07 2.389,0.281c0.42,0.3 0.174,0.497 -0.103,0.614c-0.047,0.02 -0.052,0.107 -0.009,0.132c0.393,0.218 0.706,0.269 0.99,-0.078c0.316,-0.386 0.667,-2.037 -3.196,-1.932c-0.07,-0.667 0.141,-1.124 -0.421,-1.791c-0.562,-0.67 -0.562,1.824 -0.562,1.824c0,0 -1.44,0.21 -2.634,1.054c-1.194,0.843 2.458,2.88 2.458,2.88c0,0 0.07,0.913 0.597,1.019c0.527,0.105 0.492,-0.667 0.492,-0.667c0,0 3.16,0.913 5.269,-0.948c2.106,-1.863 0.139,-4.848 -2.671,-6.217zM19.74,25.844c0.562,0.247 1.65,0.071 2.353,-0.632c0.702,-0.702 1.019,-2.002 -0.21,-1.932c0,0 -0.457,-0.597 -1.44,-0.316c-0.983,0.281 -2.212,1.581 -1.334,2.423c-0.001,0.386 0.105,1.124 0.631,0.457zM20.723,30.305c0,-0.527 -0.035,-2.634 -0.106,-3.056c-0.07,-0.421 -0.456,-0.773 -0.667,-0.351c0,0 -0.176,2.037 -0.106,3.301c0.036,0.528 0.879,0.632 0.879,0.106zM22.654,27.53c0.737,-0.07 1.265,-0.106 1.897,-0.21c0.632,-0.105 0.667,-0.562 0.175,-0.667c0,0 -1.932,-0.421 -3.231,0.421c-0.632,0.421 -0.457,1.194 -0.106,1.229c0.351,0.035 2.142,0.106 2.564,0.386c0.421,0.281 0.527,0.492 0.07,0.773c-0.457,0.281 -1.475,0.421 -1.897,0.281c-0.421,-0.141 -0.562,-0.878 0.21,-0.492c0.773,0.386 2.177,-0.07 1.229,-0.386c-0.948,-0.316 -1.72,-0.245 -2.212,0.106c-0.492,0.351 0.176,1.089 0.737,1.334c0.562,0.245 1.616,0.316 2.248,-0.07c0.632,-0.386 0.948,-1.861 -0.07,-2.107c-1.019,-0.245 -1.651,-0.21 -2.107,-0.281c-0.455,-0.071 -0.244,-0.246 0.493,-0.317zM27.783,26.338c-1.089,-1.265 -0.528,0.525 -0.457,0.841c0.07,0.316 0.351,1.51 0.351,2.002c-0.351,-0.527 -0.913,-1.581 -1.405,-2.072c-0.492,-0.492 -0.632,-0.07 -0.632,-0.07c0,0 -0.492,1.791 -0.351,2.95c0.141,1.159 0.737,0.351 0.773,0c0.035,-0.351 0.106,-1.51 0.106,-1.826c0.316,0.702 0.808,1.51 1.194,1.897c0.386,0.386 0.773,0.141 0.913,-0.21c0.14,-0.351 0.597,-2.248 -0.492,-3.512zM31.54,29.917c0.386,-0.316 -0.071,-0.631 -0.457,-0.595c-0.386,0.035 -1.51,0.21 -1.51,0.21l0.245,-0.737c0,0 0.737,0.035 1.334,-0.035c0.597,-0.07 0.176,-0.737 -0.035,-0.737c-0.21,0 -0.983,0 -0.983,0l0.176,-0.492c0,0 1.299,-0.035 1.72,-0.106c0.421,-0.07 -0.245,-0.773 -0.737,-0.808c-0.492,-0.035 -1.546,0.106 -2.248,0.245c-0.702,0.141 0.457,0.667 0.457,0.667c0,0 -0.106,0.351 -0.245,0.597c-0.421,0.07 -0.386,0.316 -0.245,0.632c-0.281,0.737 -0.421,1.651 0.386,1.932c0.808,0.28 1.756,-0.458 2.142,-0.773zM35.826,27.882c0.105,-1.476 -1.23,-1.159 -1.757,-0.632c-0.527,0.527 -1.44,1.897 -1.44,1.897c0.106,-0.913 0.351,-1.159 0.913,-2.072c0.48,-0.78 -0.281,-0.492 -0.281,-0.492c0,0 -1.791,1.51 -1.019,3.231c-0.527,1.299 -1.37,3.16 -0.141,4.144c0.316,0.21 0.21,-0.421 0.316,-0.773c0.106,-0.351 0.457,-2.142 0.808,-2.634c0.845,-0.07 2.355,-0.386 2.601,-2.669zM42.004,27.786c0.003,-0.063 -0.05,-0.115 -0.115,-0.115h-2.114c-0.044,-0.699 -0.128,-1.445 -0.282,-2.146c-0.009,-0.039 -0.041,-0.07 -0.081,-0.073c-0.287,0 -0.331,0.002 -0.601,0.002c-0.078,0.002 -0.131,0.075 -0.111,0.149c0.088,0.323 0.216,1.147 0.258,2.067h-2.008c-0.062,0 -0.114,0.051 -0.117,0.112l-0.053,0.532c-0.004,0.085 0.069,0.155 0.154,0.146l2.048,0.007c0.012,0.754 0.018,1.207 -0.046,2.004c-0.008,0.053 0.033,0.098 0.087,0.101c0.322,0.02 0.526,0.045 0.647,0.047c0.049,0.001 0.089,-0.036 0.093,-0.085c0.019,-0.256 0.068,-1.06 0.044,-2.064l2.08,0.007c0.065,0 0.117,-0.053 0.117,-0.118z"></path></g></g></svg>