<?xml version="1.0" encoding="UTF-8" standalone="no"?>
<svg
   xmlns:dc="http://purl.org/dc/elements/1.1/"
   xmlns:cc="http://creativecommons.org/ns#"
   xmlns:rdf="http://www.w3.org/1999/02/22-rdf-syntax-ns#"
   xmlns:svg="http://www.w3.org/2000/svg"
   xmlns="http://www.w3.org/2000/svg"
   xmlns:sodipodi="http://sodipodi.sourceforge.net/DTD/sodipodi-0.dtd"
   xmlns:inkscape="http://www.inkscape.org/namespaces/inkscape"
   viewBox="0 0 266.68439 129.01538"
   enable-background="new 0 0 413 82"
   version="1.1"
   id="svg15"
   sodipodi:docname="cufon.svg"
   width="266.68439"
   height="129.01538"
   inkscape:version="0.92.5 (2060ec1f9f, 2020-04-08)">
  <metadata
     id="metadata21">
    <rdf:RDF>
      <cc:Work
         rdf:about="">
        <dc:format>image/svg+xml</dc:format>
        <dc:type
           rdf:resource="http://purl.org/dc/dcmitype/StillImage" />
        <dc:title></dc:title>
      </cc:Work>
    </rdf:RDF>
  </metadata>
  <defs
     id="defs19" />
  <sodipodi:namedview
     pagecolor="#ffffff"
     bordercolor="#666666"
     borderopacity="1"
     objecttolerance="10"
     gridtolerance="10"
     guidetolerance="10"
     inkscape:pageopacity="0"
     inkscape:pageshadow="2"
     inkscape:window-width="1854"
     inkscape:window-height="1021"
     id="namedview17"
     showgrid="false"
     showguides="true"
     inkscape:guide-bbox="true"
     fit-margin-top="0"
     fit-margin-left="0"
     fit-margin-right="0"
     fit-margin-bottom="10"
     inkscape:zoom="2.3900548"
     inkscape:cx="196.66142"
     inkscape:cy="94.915265"
     inkscape:window-x="33"
     inkscape:window-y="0"
     inkscape:window-maximized="1"
     inkscape:current-layer="svg15" />
  <style
     type="text/css"
     id="style2">.st0{fill:#0066FF;} .st1{enable-background:new ;} .st2{fill:#FFFFFF;} .st3{fill:#6C6E74;}</style>
  <path
     style="fill:#0066ff"
     inkscape:connector-curvature="0"
     id="bg"
     d="m 22.386024,1.0986328e-4 c 47.7,0 180.499996,0.0999999967 207.699996,0 27.2,-0.10000000328 59.6,68.10000013672 13.2,68.10000013672 -46.3,0 -176.599996,-0.5 -202.899996,0 -26.3,0.5 -65.7,-68.10000013672 -18,-68.10000013672 z"
     class="st0" />
  <g
     class="st1"
     id="g7"
     style="enable-background:new"
     transform="translate(-1.0139764,-6.8998901)">
    <path
       class="st2"
       d="m 49.3,43.7 c 0,7.1 1.3,10 9.1,10 h 0.5 c 3.2,0 6,-0.5 8.8,-1.3 1.1,-0.3 3.1,5 3.1,5.9 0,2.5 -8.9,3.5 -11.9,3.5 H 58.4 C 46.1,61.8 40.1,57.7 40.1,45.2 V 33.9 c 0,-12.5 6,-16.6 18.3,-16.6 h 0.5 c 3.1,0 11.9,1 11.9,3.5 0,0.9 -2,6.2 -3.1,5.9 -2.8,-0.8 -5.6,-1.4 -8.8,-1.4 h -0.5 c -7.8,0 -9.1,2.9 -9.1,10 z m 55.1,-24.8 c 0,-1.3 5.2,-1.7 6.8,-1.7 1.1,0 2.2,0.9 2.2,1.9 v 26 c 0,12.5 -5.9,16.6 -18.4,16.6 H 94.5 C 82.2,61.7 76.2,57.6 76.2,45.1 V 18.9 c 0,-1.3 5.2,-1.7 6.8,-1.7 1.1,0 2.2,0.9 2.2,1.9 v 24.6 c 0,7 1.6,10 9.3,10 H 95 c 7.8,0 9.4,-3 9.4,-10 z m 25.3,41 c 0,1 -1.1,1.9 -2.2,1.9 -1.6,0 -6.8,-0.4 -6.8,-1.6 V 19.5 c 0,-0.9 1,-1.6 2.2,-1.6 H 148 c 1,0 1.6,1.1 1.6,2.1 0,1.5 -0.2,5.9 -1.4,5.9 h -18.4 v 9.2 h 14.9 c 0.8,0 1.5,1.1 1.5,2.1 0,1.5 -0.1,5.9 -1.3,5.9 h -15.1 v 16.8 z m 41.7,1.8 c -12.3,0 -18.3,-4.1 -18.3,-16.6 V 33.9 c 0,-12.5 6,-16.6 18.3,-16.6 h 0.5 c 12.4,0 18.4,4.1 18.4,16.6 V 45 c 0,12.5 -6,16.6 -18.4,16.6 h -0.5 z m -9,-17.1 c 0,7 1.3,9.1 9.1,9.1 h 0.5 c 7.7,0 9.1,-2 9.1,-9.1 V 34.3 c 0,-7 -1.4,-9.1 -9.1,-9.1 h -0.5 c -7.7,0 -9.1,2 -9.1,9.1 z m 69.3,17.1 c -1.6,0 -5.9,-0.2 -6.8,-1.4 L 205.8,33.1 v 26.7 c 0,1 -1.1,1.9 -2.2,1.9 -1.5,0 -6.7,-0.4 -6.7,-1.7 V 18.4 c 0,-1.2 5,-1.3 6.6,-1.3 1,0 1.8,0.9 2.3,1.6 l 19.1,27.2 V 18.3 c 0,-1.2 5.5,-1.3 7.1,-1.3 1.1,0 1.9,0.8 1.9,1.8 V 60 c 0,1.1 -1.2,1.7 -2.2,1.7 z"
       id="path5"
       inkscape:connector-curvature="0"
       style="fill:#ffffff" />
  </g>
  <g
     class="st1"
     id="g11"
     style="enable-background:new"
     transform="translate(-213.78417,57.115378)">
    <path
       class="st3"
       d="m 285.6,60 c 0,0.9 -0.5,1.7 -1.4,1.7 -1.3,0 -4,-0.4 -4,-1.1 V 19.1 c 0,-0.9 0.6,-1.3 2,-1.3 h 22.7 c 0.7,0 1.4,0.5 1.4,1.3 0,1.2 -0.3,3.5 -1,3.5 h -19.7 v 14 h 16.6 c 0.7,0 1.4,0.5 1.4,1.4 0,1.2 -0.4,3.4 -1,3.4 h -17 z m 23.2,-20 c 0,-8.5 3.5,-11.3 11.9,-11.3 h 0.2 c 8.4,0 11.9,2.9 11.9,11.3 v 10.6 c 0,8.5 -3.5,11.3 -11.9,11.3 h -0.2 c -8.4,0 -11.9,-2.9 -11.9,-11.3 z M 321,57.4 c 5.8,0 6.8,-2.5 6.8,-7.9 V 41 c 0,-5.5 -1.1,-8 -6.8,-8 h -0.3 c -5.8,0 -6.8,2.5 -6.8,8 v 8.5 c 0,5.4 1.1,7.9 6.8,7.9 z m 37.7,-16.3 c 0,-3.8 -0.1,-7.9 -3.8,-7.9 -4.9,0 -10,1.7 -10,2.6 v 24.4 c 0,0.8 -0.6,1.4 -1.4,1.4 -1.3,0 -3.7,-0.2 -3.7,-1 v -27 c 0,-2.2 7,-5.1 16,-5.1 7.3,0 7.9,5.8 7.9,11 v 20.6 c 0,0.8 -0.6,1.4 -1.4,1.4 -1.2,0 -3.6,-0.2 -3.6,-1 z m 19.8,-7.2 v 19.3 c 0,2.2 0.7,3.8 3,3.8 0.9,0 1.8,-0.4 3.5,-0.9 0.6,-0.2 1.3,1.8 1.6,2.8 0.2,0.7 -0.2,1.3 -0.9,1.6 -2,0.8 -3.1,1.3 -5.6,1.3 -3.5,0 -6.6,-1.9 -6.6,-7.8 V 34 h -4.2 c -0.7,0 -1.1,-0.6 -1.1,-1.2 0,-1.1 0.2,-3.5 1.3,-3.5 h 4 V 21 c 0,-0.7 2.5,-1 3.7,-1 0.8,0 1.4,0.6 1.4,1.4 v 7.9 h 6.6 c 0.7,0 1.1,0.5 1.1,1.2 0,1.1 -0.2,3.5 -1.3,3.5 h -6.5 z m 21.1,23.4 c 3.1,0 6.8,-0.6 6.8,-4 0,-6.1 -15.5,-7.6 -15.5,-16.4 0,-7.1 5.7,-8.2 11.2,-8.2 2.7,0 5,0.3 7.3,1 0.8,0.2 1.3,0.8 1.2,1.5 -0.2,1.1 -0.9,3.2 -1.6,3.1 -2.3,-0.6 -4.6,-1.1 -6.9,-1.1 -3.4,0 -6.1,0.8 -6.1,3.7 0,5 15.5,6.5 15.5,16.5 0,6.8 -5.6,8.5 -11.7,8.5 -2.8,0 -6.7,-0.6 -9.1,-1.3 -0.8,-0.3 -1.2,-0.8 -1,-1.6 0.2,-1.1 0.9,-3.1 1.6,-2.9 2.5,0.5 5.3,1.2 8.3,1.2 z"
       id="path9"
       inkscape:connector-curvature="0"
       style="fill:#6c6e74" />
  </g>
</svg>
